<?xml version="1.0" encoding="utf-8"?>
<!-- Generator: Adobe Illustrator 17.0.0, SVG Export Plug-In . SVG Version: 6.00 Build 0)  -->
<!DOCTYPE svg PUBLIC "-//W3C//DTD SVG 1.1//EN" "http://www.w3.org/Graphics/SVG/1.1/DTD/svg11.dtd">
<svg version="1.1" id="图层_1" xmlns="http://www.w3.org/2000/svg" xmlns:xlink="http://www.w3.org/1999/xlink" x="0px" y="0px"
	 width="30px" height="30px" viewBox="0 0 30 30" enable-background="new 0 0 30 30" xml:space="preserve">
<g display="none">
	<path display="inline" fill="none" stroke="#3E88F0" stroke-miterlimit="10" d="M14.574,5.081c0.234-0.498,0.617-0.498,0.851,0
		l2.537,5.395c0.234,0.498,0.87,0.973,1.414,1.056l5.6,0.854c0.544,0.083,0.674,0.473,0.29,0.866l-4.085,4.178
		c-0.384,0.393-0.626,1.159-0.538,1.702l0.972,5.945c0.089,0.543-0.233,0.77-0.714,0.504l-5.026-2.773
		c-0.482-0.266-1.27-0.266-1.751,0l-5.026,2.773c-0.482,0.266-0.803,0.039-0.714-0.504l0.972-5.945
		c0.089-0.543-0.153-1.309-0.538-1.702l-4.085-4.178c-0.384-0.393-0.254-0.783,0.29-0.866l5.6-0.854
		c0.544-0.083,1.18-0.558,1.414-1.056L14.574,5.081z"/>
</g>
<g>
	<path fill="#3E88F0" d="M14.574,5.081c0.234-0.498,0.617-0.498,0.851,0l2.537,5.395c0.234,0.498,0.87,0.973,1.414,1.056l5.6,0.854
		c0.544,0.083,0.674,0.473,0.29,0.866l-4.085,4.178c-0.384,0.393-0.626,1.159-0.538,1.702l0.972,5.945
		c0.089,0.543-0.233,0.77-0.714,0.504l-5.026-2.773c-0.482-0.266-1.27-0.266-1.751,0l-5.026,2.773
		c-0.482,0.266-0.803,0.039-0.714-0.504l0.972-5.945c0.089-0.543-0.153-1.309-0.538-1.702l-4.085-4.178
		c-0.384-0.393-0.254-0.783,0.29-0.866l5.6-0.854c0.544-0.083,1.18-0.558,1.414-1.056L14.574,5.081z"/>
</g>
</svg>
