<?xml version="1.0" encoding="utf-8"?>
<!-- Generator: Adobe Illustrator 22.0.0, SVG Export Plug-In . SVG Version: 6.00 Build 0)  -->
<svg version="1.1" id="图层_1" xmlns="http://www.w3.org/2000/svg" xmlns:xlink="http://www.w3.org/1999/xlink" x="0px" y="0px"
	 viewBox="0 0 30 30" style="enable-background:new 0 0 30 30;" xml:space="preserve">
<style type="text/css">
	.st0{fill:#3E88F0;}
</style>
<g>
	<path class="st0" d="M23.7,4.3H6.3c-1.1,0-2,0.9-2,2v17.4c0,1.1,0.9,2,2,2h17.4c1.1,0,2-0.9,2-2V6.3C25.7,5.2,24.8,4.3,23.7,4.3z
		 M23.7,22.8c0,0.5-0.4,1-1,1H7.2c-0.5,0-1-0.4-1-1V7.2c0-0.5,0.4-1,1-1h15.6c0.5,0,1,0.4,1,1V22.8z"/>
	<path class="st0" d="M21.4,8.5h-5.9c-0.2,0-0.2,0.2-0.1,0.3l2.3,2.3l-6.5,6.5l-2.3-2.3c-0.1-0.1-0.3,0-0.3,0.1v5.9
		c0,0.1,0.1,0.2,0.2,0.2h5.9c0.2,0,0.2-0.2,0.1-0.3l-2.3-2.3l6.5-6.5l2.3,2.3c0.1,0.1,0.3,0,0.3-0.1V8.6C21.5,8.5,21.5,8.5,21.4,8.5
		z"/>
</g>
</svg>
