<?xml version="1.0" encoding="utf-8"?>
<!-- Generator: Adobe Illustrator 22.0.0, SVG Export Plug-In . SVG Version: 6.00 Build 0)  -->
<svg version="1.1" id="图层_1" xmlns="http://www.w3.org/2000/svg" xmlns:xlink="http://www.w3.org/1999/xlink" x="0px" y="0px"
	 viewBox="0 0 30 30" style="enable-background:new 0 0 30 30;" xml:space="preserve">
<style type="text/css">
	.st0{display:none;fill:none;stroke:#3980F6;stroke-width:2;stroke-miterlimit:10;}
	.st1{display:none;fill:#3980F6;}
	.st2{display:none;}
	.st3{display:inline;fill:#3980F6;}
	.st4{display:inline;}
	.st5{fill:#3E88F0;}
	.st6{display:none;fill:#3E88F0;}
</style>
<path class="st0" d="M20.8,24.4l-6-3.2l-6,3.2c-0.4,0.2-0.8-0.1-0.7-0.5l1.2-6.8l-4.9-4.8c-0.3-0.3-0.1-0.8,0.3-0.9l6.7-1l3-6.2
	c0.2-0.4,0.7-0.4,0.9,0l3,6.2l6.7,1c0.4,0.1,0.6,0.6,0.3,0.9l-4.9,4.8l1.1,6.8C21.6,24.3,21.2,24.6,20.8,24.4z"/>
<path class="st1" d="M20.8,24.4l-6-3.2l-6,3.2c-0.4,0.2-0.8-0.1-0.7-0.5l1.2-6.8l-4.9-4.8c-0.3-0.3-0.1-0.8,0.3-0.9l6.7-1l3-6.2
	c0.2-0.4,0.7-0.4,0.9,0l3,6.2l6.7,1c0.4,0.1,0.6,0.6,0.3,0.9l-4.9,4.8l1.1,6.8C21.6,24.3,21.2,24.6,20.8,24.4z"/>
<g class="st2">
	<path class="st3" d="M17.9,3c-1.3,0-2.6,1.3-2.6,2.5c0,1.5,0.7,2.6,2.6,2.6c1.3,0,2.6-1.2,2.6-2.6C20.4,4.1,19.9,3,17.9,3z"/>
	<path class="st3" d="M18.6,20.1c0,0-2.5,2.9-3.1,3S14.9,22.6,15,22s1.9-5.2,3.2-9.1c1.4-3.9-2.6-4.1-5.1-2.8c-2.3,1.3-4,3.5-4,3.5
		c-0.6,1.4,0.7,0.9,0.7,0.9s2-2.7,3-2.8s0.2,1.5,0.2,1.5s-2.7,7-3.2,8.5c-0.5,1.4-0.6,3.2,0.4,3.8c0.9,0.6,2.3,0.6,3.9-0.2
		c2.1-1,3.5-2.6,4.6-3.9C19.8,20.2,18.6,20.1,18.6,20.1z"/>
</g>
<g class="st2">
	<g class="st4">
		<g>
			<path class="st5" d="M15.5,3.6c-0.4-0.4-1-0.4-1.3,0L5.7,13c-0.4,0.4-0.2,0.7,0.3,0.7h17.6c0.5,0,0.7-0.3,0.3-0.7L15.5,3.6z"/>
		</g>
		<g>
			<path class="st5" d="M14.1,25.3c0.4,0.4,1,0.4,1.3,0l8.5-9.4c0.4-0.4,0.2-0.7-0.3-0.7H6c-0.6,0-0.7,0.3-0.3,0.7L14.1,25.3z"/>
		</g>
	</g>
</g>
<path class="st6" d="M28,12H18V2c0-0.6-0.4-1-1-1h-4c-0.6,0-1,0.4-1,1v10H2c-0.6,0-1,0.4-1,1v4c0,0.6,0.4,1,1,1h10v10
	c0,0.6,0.4,1,1,1h4c0.6,0,1-0.4,1-1V18h10c0.6,0,1-0.4,1-1v-4C29,12.4,28.6,12,28,12z"/>
<g>
	<circle class="st5" cx="15" cy="4" r="3"/>
	<circle class="st5" cx="15" cy="15" r="3"/>
	<circle class="st5" cx="15" cy="26" r="3"/>
</g>
<path class="st6" d="M24.1,4.3H6.8c-1.1,0-2.1,0.9-2.1,2.1v17.3c0,1.1,0.9,2.1,2.1,2.1h17.3c1.1,0,2.1-0.9,2.1-2.1V6.4
	C26.1,5.2,25.2,4.3,24.1,4.3z M9.9,22.1H8.2c-0.9,0-1.7-0.8-1.7-1.7v-1.7h3.4V22.1z M9.9,16.7H6.5v-3.4h3.4V16.7z M9.9,11.4H6.5V7.9
	h3.4V11.4z M24.4,20.4c0,0.9-0.8,1.7-1.7,1.7H11.9v-3.4h12.4v1.7C24.3,20.4,24.4,20.4,24.4,20.4z M24.4,16.7H11.9v-3.4h12.4v3.4
	H24.4z M24.4,11.4H11.9V7.9h12.4v3.5H24.4z"/>
</svg>
