<?xml version="1.0" encoding="utf-8"?>
<!-- Generator: Adobe Illustrator 17.0.0, SVG Export Plug-In . SVG Version: 6.00 Build 0)  -->
<!DOCTYPE svg PUBLIC "-//W3C//DTD SVG 1.1//EN" "http://www.w3.org/Graphics/SVG/1.1/DTD/svg11.dtd">
<svg version="1.1" id="图层_1" xmlns="http://www.w3.org/2000/svg" xmlns:xlink="http://www.w3.org/1999/xlink" x="0px" y="0px"
	 width="30px" height="30px" viewBox="0 0 30 30" enable-background="new 0 0 30 30" xml:space="preserve">
<g display="none">
	<path display="inline" fill="none" stroke="#3E88F0" stroke-miterlimit="10" d="M14.574,5.081c0.234-0.498,0.617-0.498,0.851,0
		l2.537,5.395c0.234,0.498,0.87,0.973,1.414,1.056l5.6,0.854c0.544,0.083,0.674,0.473,0.29,0.866l-4.085,4.178
		c-0.384,0.393-0.626,1.159-0.538,1.702l0.972,5.945c0.089,0.543-0.233,0.77-0.714,0.504l-5.026-2.773
		c-0.482-0.266-1.27-0.266-1.751,0l-5.026,2.773c-0.482,0.266-0.803,0.039-0.714-0.504l0.972-5.945
		c0.089-0.543-0.153-1.309-0.538-1.702l-4.085-4.178c-0.384-0.393-0.254-0.783,0.29-0.866l5.6-0.854
		c0.544-0.083,1.18-0.558,1.414-1.056L14.574,5.081z"/>
</g>
<g display="none">
	<path display="inline" fill="#3E88F0" d="M14.574,5.081c0.234-0.498,0.617-0.498,0.851,0l2.537,5.395
		c0.234,0.498,0.87,0.973,1.414,1.056l5.6,0.854c0.544,0.083,0.674,0.473,0.29,0.866l-4.085,4.178
		c-0.384,0.393-0.626,1.159-0.538,1.702l0.972,5.945c0.089,0.543-0.233,0.77-0.714,0.504l-5.026-2.773
		c-0.482-0.266-1.27-0.266-1.751,0l-5.026,2.773c-0.482,0.266-0.803,0.039-0.714-0.504l0.972-5.945
		c0.089-0.543-0.153-1.309-0.538-1.702l-4.085-4.178c-0.384-0.393-0.254-0.783,0.29-0.866l5.6-0.854
		c0.544-0.083,1.18-0.558,1.414-1.056L14.574,5.081z"/>
</g>
<g display="none">
	<g display="inline">
		<g>
			<path fill="#3E88F0" d="M15.669,5.581c-0.368-0.409-0.97-0.409-1.338,0l-7.427,8.247c-0.368,0.409-0.219,0.743,0.331,0.743
				h15.531c0.55,0,0.699-0.334,0.331-0.743L15.669,5.581z"/>
		</g>
		<g>
			<path fill="#3E88F0" d="M14.331,24.82c0.368,0.409,0.97,0.409,1.338,0l7.427-8.246c0.368-0.409,0.219-0.743-0.331-0.743H7.234
				c-0.55,0-0.699,0.334-0.331,0.743L14.331,24.82z"/>
		</g>
	</g>
</g>
<g>
	<path fill="#3E88F0" d="M13.978,19.397c0.082-0.492,0.082-0.657,0.082-1.334c0-1.067,0.226-1.745,0.76-2.484
		c0.411-0.533,0.616-0.718,1.806-1.539c0.74-0.492,1.088-0.78,1.416-1.109c0.452-0.492,0.698-1.067,0.698-1.703
		c0-1.54-1.375-2.607-3.305-2.607c-1.334,0-2.381,0.452-3.058,1.314c-0.349,0.452-0.513,0.821-0.739,1.683l-1.724-0.267
		c0.431-1.478,0.842-2.196,1.683-2.894c0.923-0.78,2.299-1.211,3.9-1.211c2.894,0,4.906,1.601,4.906,3.921
		c0,0.862-0.268,1.642-0.781,2.299c-0.329,0.431-0.656,0.718-1.58,1.355c-1.191,0.862-1.54,1.149-1.827,1.56
		c-0.369,0.513-0.534,1.088-0.534,1.887c0,0.349,0.021,0.657,0.062,1.13H13.978z M15.866,21.306v1.929h-1.991v-1.929H15.866z"/>
</g>
<circle fill="none" stroke="#3E88F0" stroke-miterlimit="10" cx="15" cy="14.614" r="10.61"/>
</svg>
