<?xml version="1.0" encoding="utf-8"?>
<!-- Generator: Adobe Illustrator 22.0.0, SVG Export Plug-In . SVG Version: 6.00 Build 0)  -->
<svg version="1.1" id="图层_1" xmlns="http://www.w3.org/2000/svg" xmlns:xlink="http://www.w3.org/1999/xlink" x="0px" y="0px"
	 viewBox="0 0 42 42.8" style="enable-background:new 0 0 42 42.8;" xml:space="preserve">
<style type="text/css">
	.st0{fill:#9B9B9B;}
</style>
<title>资源 25</title>
<g id="图层_2_1_">
	<g id="图层_1-2">
		<path class="st0" d="M21,3l17.3,14.8l-2.5,1.1c-1.2,0.5-2,1.7-2,3v17.3c0,0.5-0.4,0.9-0.8,0.9c0,0,0,0,0,0h-4.1v-5.6
			c0-2.6-2.1-4.7-4.7-4.7h-6.2c-2.6,0-4.7,2.1-4.7,4.7v5.6H9.1c-0.5,0-0.9-0.4-0.9-0.9V22c0-1.3-0.8-2.5-2-3l-2.5-1.2L21,3 M21,0
			c-0.3,0-0.6,0.1-0.9,0.3L0.5,17c-0.6,0.5-0.7,1.3-0.2,1.9c0.1,0.2,0.3,0.3,0.5,0.4l4.3,2c0.2,0.1,0.4,0.4,0.4,0.6v17.3
			c0,1.9,1.6,3.5,3.5,3.5h6.8v-8.2c0-1.1,0.9-2.1,2.1-2.1l0,0h6.2c1.1,0,2.1,0.9,2.1,2.1l0,0v8.2h6.7c1.9,0,3.5-1.6,3.5-3.5V22
			c0-0.3,0.2-0.5,0.4-0.6l4.4-2c0.7-0.3,1-1.1,0.7-1.8c-0.1-0.2-0.2-0.4-0.4-0.5L21.8,0.3C21.6,0.1,21.3,0,21,0L21,0z"/>
	</g>
</g>
</svg>
