<?xml version="1.0" encoding="utf-8"?>
<!-- Generator: Adobe Illustrator 22.0.0, SVG Export Plug-In . SVG Version: 6.00 Build 0)  -->
<svg version="1.1" id="图层_1" xmlns="http://www.w3.org/2000/svg" xmlns:xlink="http://www.w3.org/1999/xlink" x="0px" y="0px"
	 viewBox="0 0 44.6 42.7" style="enable-background:new 0 0 44.6 42.7;" xml:space="preserve">
<style type="text/css">
	.st0{fill:none;stroke:#9B9B9B;stroke-width:2.59;stroke-linecap:round;stroke-miterlimit:10;}
</style>
<title>资源 22</title>
<g id="图层_2_1_">
	<g id="图层_1-2">
		<path class="st0" d="M35.2,36.7l0.5,3.1c0.1,0.7-0.4,1.5-1.1,1.6c-0.3,0-0.6,0-0.9-0.1l-10.5-5.8c-0.6-0.4-1.4-0.4-2,0l-10.5,5.8
			c-0.7,0.4-1.5,0.1-1.8-0.5c-0.2-0.3-0.2-0.6-0.2-0.9l2.1-12c0.1-0.7-0.1-1.3-0.6-1.8l-8.5-8.1c-0.5-0.5-0.6-1.4-0.1-1.9
			c0.2-0.2,0.5-0.4,0.8-0.4l11.9-1.9c0.7-0.1,1.2-0.5,1.5-1.1l5.2-10.5c0.3-0.7,1.1-1,1.8-0.6c0.3,0.1,0.5,0.4,0.6,0.6l5.2,10.5
			c0.3,0.6,0.9,1,1.5,1.1l11.9,1.9c0.7,0.1,1.3,0.8,1.1,1.6c0,0.3-0.2,0.6-0.4,0.8L34.3,26c-0.5,0.5-0.7,1.2-0.6,1.8l0.5,2.8"/>
	</g>
</g>
</svg>
