<svg xmlns="http://www.w3.org/2000/svg" viewBox="0 0 126.9 129.21"><defs><style>.cls-1{fill:#e52c2a;}</style></defs><title>首页1</title><g id="图层_2" data-name="图层 2"><g id="图层_1-2" data-name="图层 1"><path class="cls-1" d="M83,125.21V104.39A10.22,10.22,0,0,0,72.76,94.18H54.14a10.21,10.21,0,0,0-10.2,10.21v20.82H27.45a6.62,6.62,0,0,1-6.62-6.61V66.41a6.07,6.07,0,0,0-3.55-5.52l-13.14-6c-.1,0-.13-.06-.14-.14a.12.12,0,0,1,0-.12l.13-.11L63.38,4l59.4,50.75.07,0s.06.05.05.13,0,.09-.08.1l-13.28,5.89a6.08,6.08,0,0,0-3.61,5.55V118.6a6.62,6.62,0,0,1-6.62,6.61Z"/><path class="cls-1" d="M63.38,9.22l52.21,44.6-7.67,3.4a10.08,10.08,0,0,0-6,9.21V118.6a2.61,2.61,0,0,1-2.62,2.61H87V104.39A14.23,14.23,0,0,0,72.76,90.18H54.14a14.22,14.22,0,0,0-14.2,14.21v16.82H27.45a2.61,2.61,0,0,1-2.62-2.61V66.41a10.08,10.08,0,0,0-5.9-9.16l-7.67-3.49L63.38,9.22m0-9.22a4.11,4.11,0,0,0-2.55.88L1.58,51.5a4.14,4.14,0,0,0,.9,7l13.14,6a2.07,2.07,0,0,1,1.21,1.88V118.6a10.61,10.61,0,0,0,10.62,10.61H47.94V104.39a6.2,6.2,0,0,1,6.2-6.21H72.76A6.21,6.21,0,0,1,79,104.39v24.82H99.31a10.61,10.61,0,0,0,10.62-10.61V66.43a2.06,2.06,0,0,1,1.23-1.89l13.35-5.92a4.14,4.14,0,0,0,.81-7L65.93.88A4.11,4.11,0,0,0,63.38,0Z"/></g></g></svg>