<svg xmlns="http://www.w3.org/2000/svg" viewBox="0 0 42 42.08"><defs><style>.cls-1{fill:#e52c2a;}</style></defs><title>资源 30</title><g id="图层_2" data-name="图层 2"><g id="图层_1-2" data-name="图层 1"><path class="cls-1" d="M3.25,18.34A2,2,0,0,1,1.3,16.39v-13a2,2,0,0,1,2-1.95h13a2,2,0,0,1,1.95,2v15Z"/><path class="cls-1" d="M16.26,2.72a.66.66,0,0,1,.65.65V17H3.25a.66.66,0,0,1-.65-.65v-13a.66.66,0,0,1,.65-.65h13m0-2.6h-13A3.26,3.26,0,0,0,0,3.37v13a3.26,3.26,0,0,0,3.25,3.25H19.19a.33.33,0,0,0,.33-.33V3.37A3.27,3.27,0,0,0,16.26.12Z"/><path class="cls-1" d="M3.25,40.78a2,2,0,0,1-1.95-2v-13a2,2,0,0,1,2-1.95h15v15a2,2,0,0,1-1.95,2Z"/><path class="cls-1" d="M16.91,25.17V38.83a.66.66,0,0,1-.65.65h-13a.66.66,0,0,1-.65-.65v-13a.66.66,0,0,1,.65-.65H16.91m2.28-2.6H3.25A3.26,3.26,0,0,0,0,25.82v13a3.26,3.26,0,0,0,3.25,3.25h13a3.26,3.26,0,0,0,3.26-3.25V22.89a.32.32,0,0,0-.33-.32Z"/><path class="cls-1" d="M23.79,18.21v-15A2,2,0,0,1,25.74,1.3h13a2,2,0,0,1,2,2v13a2,2,0,0,1-2,1.95Z"/><path class="cls-1" d="M38.75,2.6a.66.66,0,0,1,.65.65v13a.66.66,0,0,1-.65.65H25.09V3.25a.66.66,0,0,1,.65-.65h13m0-2.6h-13a3.26,3.26,0,0,0-3.26,3.25V19.19a.33.33,0,0,0,.33.33H38.75A3.26,3.26,0,0,0,42,16.26v-13A3.26,3.26,0,0,0,38.75,0Z"/><path class="cls-1" d="M25.74,40.66a2,2,0,0,1-1.95-1.95v-15h15a2,2,0,0,1,2,2v13a2,2,0,0,1-2,1.95Z"/><path class="cls-1" d="M38.75,25.05a.66.66,0,0,1,.65.65v13a.66.66,0,0,1-.65.65h-13a.66.66,0,0,1-.65-.65V25.05H38.75m0-2.61H22.81a.33.33,0,0,0-.33.33V38.71A3.26,3.26,0,0,0,25.74,42h13A3.26,3.26,0,0,0,42,38.71v-13a3.26,3.26,0,0,0-3.25-3.26Z"/></g></g></svg>