<?xml version="1.0" encoding="utf-8"?>
<!-- Generator: Adobe Illustrator 22.0.0, SVG Export Plug-In . SVG Version: 6.00 Build 0)  -->
<svg version="1.1" id="图层_1" xmlns="http://www.w3.org/2000/svg" xmlns:xlink="http://www.w3.org/1999/xlink" x="0px" y="0px"
	 viewBox="0 0 44.8 44.5" style="enable-background:new 0 0 44.8 44.5;" xml:space="preserve">
<style type="text/css">
	.st0{fill:none;stroke:#9B9B9B;stroke-width:2.78;stroke-linecap:round;stroke-miterlimit:10;}
</style>
<title>资源 23</title>
<g id="图层_2_1_">
	<g id="图层_1-2">
		<path class="st0" d="M43.4,31.1L43.4,31.1c0,6.6-5.3,11.9-11.9,12l0,0c-0.1,0-0.7,0-0.7-0.5v-5.6c0-3.6,2.9-6.4,6.5-6.5h6.1V6.6
			c0-2.9-2.3-5.2-5.2-5.2H6.6c-2.9,0-5.2,2.3-5.2,5.2v31.3c0,2.9,2.3,5.2,5.2,5.2h17.9"/>
		<line class="st0" x1="12" y1="12.7" x2="32.5" y2="12.7"/>
		<line class="st0" x1="12" y1="22.4" x2="32.5" y2="22.4"/>
		<line class="st0" x1="12" y1="32.1" x2="24.5" y2="32.1"/>
	</g>
</g>
</svg>
