<svg xmlns="http://www.w3.org/2000/svg" viewBox="0 0 137.51 131.59"><defs><style>.cls-1{fill:#e52c2a;stroke:#e52c2a;stroke-linecap:round;stroke-miterlimit:10;stroke-width:8px;}</style></defs><title>关注1</title><g id="图层_2" data-name="图层 2"><g id="图层_1-2" data-name="图层 1"><path class="cls-1" d="M108.67,113.15l1.65,9.5a4.21,4.21,0,0,1-6.18,4.41L71.8,109.26a6.33,6.33,0,0,0-6.09,0l-32.34,17.8a4.21,4.21,0,0,1-6.18-4.41L33.58,85.8a6.33,6.33,0,0,0-1.89-5.68L5.33,55.26A4.21,4.21,0,0,1,7.56,48l36.59-5.76a6.31,6.31,0,0,0,4.68-3.43L65,6.34a4.22,4.22,0,0,1,7.55,0L88.69,38.85a6.28,6.28,0,0,0,4.67,3.43L130,48a4.21,4.21,0,0,1,2.23,7.22L105.82,80.12c-1.54,1.45-2.25,3.59-1.71,4.48Z"/></g></g></svg>