<?xml version="1.0" encoding="utf-8"?>
<!-- Generator: Adobe Illustrator 22.0.0, SVG Export Plug-In . SVG Version: 6.00 Build 0)  -->
<svg version="1.1" id="图层_1" xmlns="http://www.w3.org/2000/svg" xmlns:xlink="http://www.w3.org/1999/xlink" x="0px" y="0px"
	 viewBox="0 0 42 42.1" style="enable-background:new 0 0 42 42.1;" xml:space="preserve">
<style type="text/css">
	.st0{fill:#9B9B9B;}
</style>
<title>资源 24</title>
<g id="图层_2_1_">
	<g id="图层_1-2">
		<path class="st0" d="M16.3,2.7c0.4,0,0.6,0.3,0.6,0.6V17H3.3c-0.4,0-0.6-0.3-0.7-0.6v-13c0-0.4,0.3-0.6,0.7-0.7L16.3,2.7
			 M16.3,0.1h-13C1.4,0.1,0,1.6,0,3.4c0,0,0,0,0,0v13c0,1.8,1.5,3.2,3.3,3.3h15.9c0.2,0,0.3-0.1,0.3-0.3V3.4
			C19.5,1.6,18.1,0.1,16.3,0.1L16.3,0.1z"/>
		<path class="st0" d="M16.9,25.2v13.7c0,0.4-0.3,0.6-0.6,0.7h-13c-0.4,0-0.6-0.3-0.7-0.7v-13c0-0.4,0.3-0.6,0.7-0.6L16.9,25.2
			 M19.2,22.6H3.3C1.5,22.6,0,24,0,25.8v13c0,1.8,1.5,3.2,3.3,3.3h13c1.8,0,3.3-1.5,3.3-3.3V22.9C19.5,22.7,19.4,22.6,19.2,22.6
			C19.2,22.6,19.2,22.6,19.2,22.6L19.2,22.6z"/>
		<path class="st0" d="M38.8,2.6c0.4,0,0.6,0.3,0.7,0.7v13c0,0.4-0.3,0.6-0.7,0.6H25.1V3.3c0-0.4,0.3-0.6,0.6-0.7H38.8 M38.7,0h-13
			c-1.8,0-3.3,1.5-3.3,3.3v15.9c0,0.2,0.1,0.3,0.3,0.3h15.9c1.8,0,3.3-1.5,3.3-3.3v-13C42,1.5,40.5,0,38.7,0L38.7,0z"/>
		<path class="st0" d="M38.8,25c0.4,0,0.6,0.3,0.7,0.6v13c0,0.4-0.3,0.6-0.7,0.7h-13c-0.4,0-0.6-0.3-0.6-0.7V25H38.8 M38.8,22.4
			H22.8c-0.2,0-0.3,0.1-0.3,0.3v15.9c0,1.8,1.4,3.3,3.2,3.3c0,0,0,0,0,0h13c1.8,0,3.3-1.5,3.3-3.3c0,0,0,0,0,0v-13
			C42,23.9,40.5,22.5,38.8,22.4L38.8,22.4z"/>
	</g>
</g>
</svg>
