<svg xmlns="http://www.w3.org/2000/svg" viewBox="0 0 42 42.77"><defs><style>.cls-1{fill:#44deec;}</style></defs><title>资源 28</title><g id="图层_2" data-name="图层 2"><g id="图层_1-2" data-name="图层 1"><path class="cls-1" d="M27.46,41.44V34.55a3.39,3.39,0,0,0-3.38-3.38H17.92a3.39,3.39,0,0,0-3.38,3.38v6.89H9.08a2.2,2.2,0,0,1-2.19-2.19V22a2,2,0,0,0-1.17-1.83l-4.35-2,0,0v-.1L21,1.3,40.62,18.09l.05.1-4.42,2A2,2,0,0,0,35.06,22V39.25a2.19,2.19,0,0,1-2.19,2.19Z"/><path class="cls-1" d="M21,3.05,38.26,17.81l-2.54,1.13a3.33,3.33,0,0,0-2,3V39.25a.86.86,0,0,1-.86.87H28.78V34.55a4.71,4.71,0,0,0-4.7-4.7H17.92a4.71,4.71,0,0,0-4.7,4.7v5.57H9.08a.87.87,0,0,1-.86-.87V22a3.35,3.35,0,0,0-2-3L3.73,17.79,21,3.05m0-3a1.41,1.41,0,0,0-.85.29L.52,17.05a1.37,1.37,0,0,0,.3,2.33l4.35,2a.68.68,0,0,1,.4.62V39.25a3.52,3.52,0,0,0,3.51,3.52h6.78V34.55a2.06,2.06,0,0,1,2.06-2.06h6.16a2.06,2.06,0,0,1,2.06,2.06v8.22h6.73a3.52,3.52,0,0,0,3.51-3.52V22a.68.68,0,0,1,.41-.62l4.42-2a1.37,1.37,0,0,0,.27-2.32L21.82.29A1.4,1.4,0,0,0,21,0Z"/></g></g></svg>