<svg xmlns="http://www.w3.org/2000/svg" viewBox="0 0 129.13 129.38"><defs><style>.cls-1{fill:#89898c;}</style></defs><title>资源 25</title><g id="图层_2" data-name="图层 2"><g id="图层_1-2" data-name="图层 1"><path class="cls-1" d="M50,8.38a2,2,0,0,1,2,2v42H10a2,2,0,0,1-2-2v-40a2,2,0,0,1,2-2H50m0-8H10a10,10,0,0,0-10,10v40a10,10,0,0,0,10,10H59a1,1,0,0,0,1-1v-49a10,10,0,0,0-10-10Z"/><path class="cls-1" d="M52,77.38v42a2,2,0,0,1-2,2H10a2,2,0,0,1-2-2v-40a2,2,0,0,1,2-2H52m7-8H10a10,10,0,0,0-10,10v40a10,10,0,0,0,10,10H50a10,10,0,0,0,10-10v-49a1,1,0,0,0-1-1Z"/><path class="cls-1" d="M119.13,8a2,2,0,0,1,2,2V50a2,2,0,0,1-2,2h-42V10a2,2,0,0,1,2-2h40m0-8h-40a10,10,0,0,0-10,10V59a1,1,0,0,0,1,1h49a10,10,0,0,0,10-10V10a10,10,0,0,0-10-10Z"/><path class="cls-1" d="M119.13,77a2,2,0,0,1,2,2v40a2,2,0,0,1-2,2h-40a2,2,0,0,1-2-2V77h42m0-8h-49a1,1,0,0,0-1,1v49a10,10,0,0,0,10,10h40a10,10,0,0,0,10-10V79a10,10,0,0,0-10-10Z"/></g></g></svg>