<svg xmlns="http://www.w3.org/2000/svg" viewBox="0 0 128.93 128"><defs><style>.cls-1{fill:none;stroke:#89898c;stroke-linecap:round;stroke-miterlimit:10;stroke-width:8px;}</style></defs><title>资源 24</title><g id="图层_2" data-name="图层 2"><g id="图层_1-2" data-name="图层 1"><path class="cls-1" d="M124.93,89.58v.24A34.28,34.28,0,0,1,90.75,124h0c-.24,0-2.1,0-2.1-1.55V106.33a18.66,18.66,0,0,1,18.61-18.61h17.67V18.88A14.93,14.93,0,0,0,110.05,4H18.88A14.93,14.93,0,0,0,4,18.88v90.24A14.93,14.93,0,0,0,18.88,124H70.36"/><line class="cls-1" x1="34.46" y1="36.5" x2="93.46" y2="36.5"/><line class="cls-1" x1="34.46" y1="64.5" x2="93.46" y2="64.5"/><line class="cls-1" x1="34.46" y1="92.5" x2="70.46" y2="92.5"/></g></g></svg>