<svg xmlns="http://www.w3.org/2000/svg" viewBox="0 0 44.59 42.67"><defs><style>.cls-1{fill:#44deec;stroke:#44deec;stroke-linecap:round;stroke-miterlimit:10;stroke-width:2.59px;}</style></defs><title>资源 26</title><g id="图层_2" data-name="图层 2"><g id="图层_1-2" data-name="图层 1"><path class="cls-1" d="M35.24,36.69l.54,3.08a1.37,1.37,0,0,1-2,1.43L23.28,35.43a2,2,0,0,0-2,0L10.82,41.2a1.36,1.36,0,0,1-2-1.43l2.07-12A2,2,0,0,0,10.28,26L1.73,17.92a1.36,1.36,0,0,1,.72-2.34l11.87-1.87a2,2,0,0,0,1.51-1.11L21.07,2.06a1.36,1.36,0,0,1,2.45,0L28.76,12.6a2.06,2.06,0,0,0,1.52,1.11l11.86,1.87a1.37,1.37,0,0,1,.73,2.34L34.32,26c-.5.47-.73,1.17-.56,1.45Z"/></g></g></svg>