<?xml version="1.0" encoding="utf-8"?>
<!-- Generator: Adobe Illustrator 22.0.0, SVG Export Plug-In . SVG Version: 6.00 Build 0)  -->
<svg version="1.1" xmlns="http://www.w3.org/2000/svg" xmlns:xlink="http://www.w3.org/1999/xlink" x="0px" y="0px"
	 viewBox="0 0 30 30" enable-background="new 0 0 30 30" xml:space="preserve">
<g id="图层_2" display="none">
	<polygon display="inline" fill="#E03E34" points="26,13 26,11.588 15.5,3.235 5,11.588 5,27 17,27 18,27 19,27 26,27 26,16 25,16 
		25,26 19,26 19,20 19,19 18,19 13,19 12,19 12,20 12,24 13,24 13,20 18,20 18,26 17,26 6,26 6,11.902 15.5,4.291 25,11.902 25,13 	
		"/>
</g>
<g id="图层_1" display="none">
	<polygon display="inline" fill="#E03E34" points="26,13 26,11.588 15.5,3.235 5,11.588 5,27 18,27 18,20 13,20 13,24 12,24 
		12,19.985 12,19 12.673,19 18.327,19 19,19 19,19.985 19,27 26,27 26,14 10,14 10,13 	"/>
</g>
<g id="图层_3_x5F_复制">
	<g>
		<path fill="#E2AA38" d="M8.133,19.011c-0.566,0-1.026,0.46-1.026,1.026c0,0.566,0.46,1.026,1.026,1.026
			c0.566,0,1.026-0.46,1.026-1.026C9.158,19.47,8.698,19.011,8.133,19.011z"/>
		<path fill="#E2AA38" d="M8.133,8.755c-0.566,0-1.026,0.46-1.026,1.026s0.46,1.026,1.026,1.026c0.566,0,1.026-0.46,1.026-1.026
			S8.698,8.755,8.133,8.755z"/>
		<path fill="#E2AA38" d="M3,3v24h24V3H3z M8.133,22.087c-1.131,0-2.051-0.92-2.051-2.051c0-1.131,0.92-2.051,2.051-2.051
			c1.131,0,2.051,0.92,2.051,2.051C10.184,21.167,9.263,22.087,8.133,22.087z M8.133,16.959c-1.131,0-2.051-0.92-2.051-2.051
			c0-0.283,0.229-0.513,0.513-0.513s0.513,0.229,0.513,0.513c0,0.565,0.46,1.026,1.026,1.026c0.566,0,1.026-0.46,1.026-1.026
			s-0.46-1.026-1.026-1.026c-0.283,0-0.513-0.229-0.513-0.513s0.229-0.513,0.513-0.513c1.131,0,2.051,0.92,2.051,2.051
			C10.184,16.039,9.263,16.959,8.133,16.959z M8.133,11.831c-1.131,0-2.051-0.92-2.051-2.051s0.92-2.051,2.051-2.051
			c1.131,0,2.051,0.92,2.051,2.051S9.263,11.831,8.133,11.831z M24,21H11v-1h13V21z M24,16H11v-1h13V16z M24,11H11v-1h13V11z"/>
	</g>
</g>
<g id="图层_3" display="none">
	<g display="inline">
		<rect x="11" y="20" fill="#E2AA38" width="13" height="1"/>
		<path fill="#E2AA38" d="M8.133,17.985c-1.131,0-2.051,0.92-2.051,2.051c0,1.131,0.92,2.051,2.051,2.051
			c1.131,0,2.051-0.92,2.051-2.051C10.184,18.905,9.263,17.985,8.133,17.985z M8.133,21.062c-0.566,0-1.026-0.46-1.026-1.026
			c0-0.566,0.46-1.026,1.026-1.026c0.566,0,1.026,0.46,1.026,1.026C9.158,20.602,8.698,21.062,8.133,21.062z"/>
		<rect x="11" y="10" fill="#E2AA38" width="13" height="1"/>
		<path fill="#E2AA38" d="M8.133,7.729c-1.131,0-2.051,0.92-2.051,2.051s0.92,2.051,2.051,2.051c1.131,0,2.051-0.92,2.051-2.051
			S9.263,7.729,8.133,7.729z M8.133,10.806c-0.566,0-1.026-0.46-1.026-1.026c0-0.566,0.46-1.026,1.026-1.026
			c0.566,0,1.026,0.46,1.026,1.026C9.158,10.346,8.698,10.806,8.133,10.806z"/>
		<rect x="11" y="15" fill="#E2AA38" width="13" height="1"/>
		<path fill="#E2AA38" d="M8.133,12.857c-0.283,0-0.513,0.229-0.513,0.513c0,0.283,0.229,0.513,0.513,0.513
			c0.566,0,1.026,0.46,1.026,1.026c0,0.565-0.46,1.026-1.026,1.026c-0.566,0-1.026-0.46-1.026-1.026
			c0-0.283-0.229-0.513-0.513-0.513c-0.283,0-0.513,0.229-0.513,0.513c0,1.131,0.92,2.051,2.051,2.051
			c1.131,0,2.051-0.92,2.051-2.051S9.263,12.857,8.133,12.857z"/>
		<polygon fill="#E2AA38" points="3,3 3,27 24,27 24,26 4,26 4,4 26,4 26,23 27,23 27,3 		"/>
	</g>
</g>
<g id="图层_5" display="none">
	<g display="inline">
		<polygon fill="#E2AA38" points="7,3 6.639,3 6,3 6,5 7,5 7,4 26,4 26,23 25,23 25,24 27,24 27,23.361 27,23 27,3 		"/>
		<path fill="#E2AA38" d="M3,27h21V6H3V27z M6,8h1v15h15v1H7H6V8z"/>
	</g>
</g>
<g id="图层_5_x5F_复制" display="none">
	<g display="inline">
		<polygon fill="#E2AA38" points="7,3 6.639,3 6,3 6,5 7,5 7,4 26,4 26,23 25,23 25,24 27,24 27,23.361 27,23 27,3 		"/>
		<path fill="#E2AA38" d="M3,6v21h21V6H3z M23,26H4V7h19V26z"/>
	</g>
	<path display="inline" fill="none" stroke="#EA9898" stroke-linecap="round" stroke-miterlimit="10" d="M18.492,26"/>
	<path display="inline" fill="none" stroke="#EA9898" stroke-linecap="round" stroke-miterlimit="10" d="M24.339,21.754"/>
</g>
<g id="图层_7_x5F_复制" display="none">
	<path display="inline" fill="#E2AA38" d="M15,3.035c-6.619,0-12.003,5.384-12.003,12.002S8.381,27.04,15,27.04
		c1.243,0,2.469-0.189,3.643-0.563c0.264-0.084,0.409-0.365,0.325-0.628c-0.085-0.263-0.366-0.406-0.628-0.325
		c-1.076,0.343-2.2,0.517-3.34,0.517c-6.067,0-11.003-4.936-11.003-11.003C3.997,8.97,8.933,4.035,15,4.035
		c6.067,0,11.003,4.936,11.003,11.002c0,2.323-0.716,4.545-2.069,6.425c-0.162,0.224-0.111,0.536,0.113,0.697
		c0.222,0.162,0.535,0.11,0.697-0.113c1.478-2.051,2.259-4.475,2.259-7.009C27.003,8.419,21.618,3.035,15,3.035z"/>
	<g display="inline">
		<path fill="#E2AA38" d="M11.423,21.187c-0.276,0-0.514-0.117-0.67-0.328c-0.227-0.307-0.248-0.769-0.063-1.373l0.454-1.483
			c0.259-0.849-0.135-1.995-0.862-2.504l-1.271-0.89c-0.805-0.564-0.858-1.06-0.761-1.377c0.097-0.316,0.419-0.698,1.4-0.715
			l1.552-0.027c0.887-0.015,1.855-0.745,2.115-1.594l0.454-1.483c0.291-0.95,0.751-1.149,1.087-1.149
			c0.327,0,0.783,0.193,1.099,1.111l0.506,1.467c0.283,0.823,1.264,1.519,2.141,1.519l1.579-0.027c0.001,0,0.002,0,0.003,0
			c1.002,0,1.321,0.366,1.424,0.673c0.104,0.312,0.065,0.808-0.715,1.396l-1.239,0.934c-0.708,0.534-1.063,1.694-0.774,2.532
			l0.505,1.467c0.209,0.605,0.201,1.072-0.023,1.387c-0.322,0.451-0.961,0.464-1.724-0.07l-1.271-0.891
			c-0.694-0.487-1.97-0.464-2.648,0.047l-1.239,0.934C12.083,21.04,11.737,21.186,11.423,21.187z M9.302,13.553
			c0.058,0.062,0.148,0.142,0.282,0.235l1.271,0.89c1.085,0.76,1.632,2.349,1.245,3.616l-0.454,1.483
			c-0.048,0.156-0.069,0.274-0.077,0.358c0.076-0.036,0.18-0.097,0.311-0.195l1.239-0.934c1.017-0.767,2.778-0.798,3.824-0.066
			l1.271,0.891c0.138,0.097,0.243,0.152,0.317,0.185c-0.011-0.084-0.036-0.202-0.09-0.356l-0.505-1.467
			c-0.432-1.253,0.06-2.859,1.118-3.657l1.239-0.934c0.131-0.099,0.218-0.182,0.273-0.245c-0.071-0.014-0.174-0.025-0.317-0.025
			l-1.6,0.027h-0.001c-1.353,0-2.708-0.963-3.131-2.193l-0.505-1.467c-0.053-0.154-0.105-0.263-0.148-0.336
			c-0.041,0.074-0.089,0.185-0.137,0.341l-0.454,1.484c-0.388,1.268-1.729,2.278-3.054,2.301l-1.552,0.027
			C9.504,13.519,9.385,13.535,9.302,13.553z"/>
	</g>
</g>
<g id="图层_7" display="none">
	<path display="inline" fill="#E2AA38" d="M15,3.035c-6.619,0-12.003,5.384-12.003,12.002S8.381,27.04,15,27.04
		c1.243,0,2.469-0.189,3.643-0.563c0.264-0.084,0.409-0.365,0.325-0.628c-0.085-0.263-0.366-0.406-0.628-0.325
		c-1.076,0.343-2.2,0.517-3.34,0.517c-6.067,0-11.003-4.936-11.003-11.003C3.997,8.97,8.933,4.035,15,4.035
		c6.067,0,11.003,4.936,11.003,11.002c0,2.323-0.716,4.545-2.069,6.425c-0.162,0.224-0.111,0.536,0.113,0.697
		c0.222,0.162,0.535,0.11,0.697-0.113c1.478-2.051,2.259-4.475,2.259-7.009C27.003,8.419,21.618,3.035,15,3.035z"/>
	<g display="inline">
		<path fill="none" stroke="#EA9898" stroke-miterlimit="10" d="M18.913,19.497c0.358,1.04-0.086,1.375-0.987,0.744l-1.271-0.89
			c-0.901-0.631-2.357-0.606-3.236,0.056l-1.239,0.934c-0.879,0.662-1.334,0.343-1.012-0.709l0.454-1.484
			c0.322-1.052-0.152-2.429-1.053-3.06l-1.271-0.89c-0.901-0.631-0.738-1.163,0.361-1.182l1.551-0.027
			c1.1-0.019,2.263-0.895,2.585-1.947l0.454-1.484c0.322-1.052,0.878-1.062,1.236-0.021l0.505,1.467
			c0.358,1.04,1.551,1.875,2.651,1.856l1.551-0.027c1.1-0.019,1.281,0.507,0.402,1.169l-1.239,0.934
			c-0.879,0.662-1.304,2.054-0.946,3.095L18.913,19.497z"/>
	</g>
	<g display="inline">
		<path fill="#E2AA38" d="M18.913,19.497c0.358,1.04-0.086,1.375-0.987,0.744l-1.271-0.89c-0.901-0.631-2.357-0.606-3.236,0.056
			l-1.239,0.934c-0.879,0.662-1.334,0.343-1.012-0.709l0.454-1.484c0.322-1.052-0.152-2.429-1.053-3.06l-1.271-0.89
			c-0.901-0.631-0.738-1.163,0.361-1.182l1.551-0.027c1.1-0.019,2.263-0.895,2.585-1.947l0.454-1.484
			c0.322-1.052,0.878-1.062,1.236-0.021l0.505,1.467c0.358,1.04,1.551,1.875,2.651,1.856l1.551-0.027
			c1.1-0.019,1.281,0.507,0.402,1.169l-1.239,0.934c-0.879,0.662-1.304,2.054-0.946,3.095L18.913,19.497z"/>
		<path fill="none" stroke="#E2AA38" stroke-miterlimit="10" d="M18.913,19.497c0.358,1.04-0.086,1.375-0.987,0.744l-1.271-0.89
			c-0.901-0.631-2.357-0.606-3.236,0.056l-1.239,0.934c-0.879,0.662-1.334,0.343-1.012-0.709l0.454-1.484
			c0.322-1.052-0.152-2.429-1.053-3.06l-1.271-0.89c-0.901-0.631-0.738-1.163,0.361-1.182l1.551-0.027
			c1.1-0.019,2.263-0.895,2.585-1.947l0.454-1.484c0.322-1.052,0.878-1.062,1.236-0.021l0.505,1.467
			c0.358,1.04,1.551,1.875,2.651,1.856l1.551-0.027c1.1-0.019,1.281,0.507,0.402,1.169l-1.239,0.934
			c-0.879,0.662-1.304,2.054-0.946,3.095L18.913,19.497z"/>
	</g>
</g>
</svg>
